# xmcd
#
# Track frame offsets: 
#        150
#        12660
#        36240
#        61150
#        78985
#        91377
#        104747
#        115962
#        124987
#        134204
#        151756
#        167279
#        181506
#        202383
#        217163
#        227530
#        242343
#        252580
#        265388
#        278628
#        290790
#        311740
#
# Disc length: 4425 seconds
#
# Revision: 0
# Processed by: cddbd v1.5.2PL0 Copyright (c) Steve Scherf et al.
# Submitted via: ExactAudioCopy v1.0b3
#
DISCID=4b114716
DTITLE=Various Artist - Xmas ´99
DYEAR=1900
DGENRE=
TTITLE0=Monty Python - Christmas In Heaven
TTITLE1=Natalie Merchant - Children Go Where I Send Thee
TTITLE2=Ray Charles - Little Drummer Boy
TTITLE3=B.B. King - Merry Christmas Baby
TTITLE4=Chuck Berry - Run Rudolph Run
TTITLE5=The Temptations - Rudolph The Red-Nosed Reindeer
TTITLE6=Diana Ross - Little Bright Star
TTITLE7=Beach Boys - Santa's Beard
TTITLE8=Beach Boys - Little Saint Nick
TTITLE9=Dianne Reeves and Lou Rawls - Baby It's Cold Outside
TTITLE10=Eartha Kitt - Santa Baby
TTITLE11=Dianne Reeves - A Merrier Christmas
TTITLE12=Betty Carter - The Christmas Song
TTITLE13=Holly Cole - Please Come Home For Christmas
TTITLE14=Holly Cole - I'd Like To Hitch A Ride With Santa Claus
TTITLE15=Ella Fitzgerald - Good Morning Blues
TTITLE16=Ella Fitzgerald - Frosty The Snowman
TTITLE17=Louis Armstrong - Zat You Santa Claus
TTITLE18=Louis Armstrong - Christmas In New Orleans
TTITLE19=Harry Connick Jr. - Christmas Dreaming
TTITLE20=Harry Connick Jr. - It Must Have Been Ol') Santa Claus
TTITLE21=The Pretenders - Have Yourself A Merry Little Christmas
EXTD=
EXTT0=
EXTT1=
EXTT2=
EXTT3=
EXTT4=
EXTT5=
EXTT6=
EXTT7=
EXTT8=
EXTT9=
EXTT10=
EXTT11=
EXTT12=
EXTT13=
EXTT14=
EXTT15=
EXTT16=
EXTT17=
EXTT18=
EXTT19=
EXTT20=
EXTT21=
PLAYORDER=
